<svg width="68" height="68" viewBox="0 0 68 68" fill="none" xmlns="http://www.w3.org/2000/svg">
<g filter="url(#filter0_d_93_208)">
<circle cx="34.0952" cy="30.0952" r="28.8452" fill="#CEB27D" stroke="#121420" stroke-width="1.5"/>
<path d="M32.3005 41.3726C31.8986 41.7743 31.3537 42 30.7854 42C30.2172 42 29.6723 41.7743 29.2704 41.3726L19.6274 31.7296C19.2257 31.3277 19 30.7828 19 30.2146C19 29.6463 19.2257 29.1014 19.6274 28.6995L29.2704 19.0565C29.6746 18.6662 30.2159 18.4502 30.7777 18.4551C31.3396 18.46 31.877 18.6853 32.2744 19.0826C32.6717 19.48 32.897 20.0174 32.9019 20.5793C32.9068 21.1411 32.6908 21.6824 32.3005 22.0866L26.4997 28.0717L46.8571 28.0717C47.4254 28.0717 47.9705 28.2974 48.3724 28.6993C48.7742 29.1012 49 29.6462 49 30.2146C49 30.7829 48.7742 31.3279 48.3724 31.7298C47.9705 32.1317 47.4254 32.3575 46.8571 32.3575H26.4997L32.3005 38.3425C32.7022 38.7444 32.9279 39.2894 32.9279 39.8576C32.9279 40.4258 32.7022 40.9707 32.3005 41.3726Z" fill="#121420"/>
</g>
<defs>
<filter id="filter0_d_93_208" x="0.5" y="0.5" width="67.1905" height="67.1904" filterUnits="userSpaceOnUse" color-interpolation-filters="sRGB">
<feFlood flood-opacity="0" result="BackgroundImageFix"/>
<feColorMatrix in="SourceAlpha" type="matrix" values="0 0 0 0 0 0 0 0 0 0 0 0 0 0 0 0 0 0 127 0" result="hardAlpha"/>
<feOffset dy="4"/>
<feGaussianBlur stdDeviation="2"/>
<feComposite in2="hardAlpha" operator="out"/>
<feColorMatrix type="matrix" values="0 0 0 0 0 0 0 0 0 0 0 0 0 0 0 0 0 0 0.25 0"/>
<feBlend mode="normal" in2="BackgroundImageFix" result="effect1_dropShadow_93_208"/>
<feBlend mode="normal" in="SourceGraphic" in2="effect1_dropShadow_93_208" result="shape"/>
</filter>
</defs>
</svg>
