<svg width="93" height="109" viewBox="0 0 93 109" fill="none" xmlns="http://www.w3.org/2000/svg">
<path fill-rule="evenodd" clip-rule="evenodd" d="M69.75 15.3861V16.5589C76.4615 17.1726 83.1456 18.0551 89.7864 19.2042C90.2878 19.2911 90.7672 19.4758 91.1972 19.748C91.6272 20.0201 91.9994 20.3742 92.2925 20.7902C92.5857 21.2061 92.794 21.6758 92.9057 22.1722C93.0173 22.6687 93.0301 23.1823 92.9432 23.6837C92.8564 24.1851 92.6716 24.6645 92.3995 25.0945C92.1274 25.5245 91.7732 25.8967 91.3573 26.1899C90.9413 26.483 90.4717 26.6914 89.9752 26.803C89.4787 26.9146 88.9651 26.9274 88.4637 26.8406L87.3839 26.6597L82.1914 94.1881C81.892 98.0816 80.134 101.719 77.269 104.372C74.4039 107.025 70.6429 108.5 66.7379 108.5H26.2674C22.3624 108.5 18.6014 107.025 15.7363 104.372C12.8712 101.719 11.1133 98.0816 10.8139 94.1881L5.6162 26.6597L4.53637 26.8406C4.03496 26.9274 3.52135 26.9146 3.02488 26.803C2.5284 26.6914 2.05878 26.483 1.64282 26.1899C0.802746 25.5979 0.232264 24.6964 0.056867 23.6837C-0.11853 22.6711 0.115528 21.6302 0.707549 20.7902C1.29957 19.9501 2.20106 19.3796 3.2137 19.2042C9.85425 18.0537 16.5384 17.1712 23.25 16.5589V15.3861C23.25 7.3054 29.5172 0.402731 37.7994 0.139231C43.6001 -0.0464104 49.4052 -0.0464104 55.2059 0.139231C63.488 0.402731 69.75 7.3054 69.75 15.3861ZM38.0474 7.88406C43.6828 7.70384 49.3225 7.70384 54.9579 7.88406C58.8484 8.00806 62 11.2837 62 15.3861V15.9699C51.6762 15.3429 41.3239 15.3429 31 15.9699V15.3861C31 11.2837 34.1465 8.00806 38.0474 7.88406ZM36.2132 38.5999C36.1935 38.091 36.0738 37.591 35.8609 37.1284C35.648 36.6658 35.346 36.2497 34.9723 35.9037C34.5986 35.5578 34.1603 35.2889 33.6827 35.1124C33.205 34.9358 32.6972 34.8551 32.1884 34.8747C31.6795 34.8944 31.1795 35.0141 30.7169 35.227C30.2543 35.4399 29.8381 35.7419 29.4922 36.1156C29.1463 36.4894 28.8774 36.9276 28.7008 37.4053C28.5243 37.8829 28.4435 38.3907 28.4632 38.8996L30.256 85.3996C30.2958 86.4266 30.7419 87.3958 31.4962 88.0939C31.8697 88.4396 32.3076 88.7083 32.785 88.8847C33.2623 89.0611 33.7698 89.1418 34.2783 89.1221C34.7868 89.1025 35.2865 88.9828 35.7488 88.77C36.2111 88.5573 36.6269 88.2555 36.9726 87.882C37.3183 87.5085 37.587 87.0706 37.7634 86.5932C37.9399 86.1159 38.0205 85.6084 38.0009 85.0999L36.2132 38.5999ZM64.5266 38.8996C64.5644 38.3809 64.4975 37.8599 64.3298 37.3677C64.1621 36.8755 63.8971 36.422 63.5504 36.0343C63.2038 35.6467 62.7827 35.3328 62.3122 35.1113C61.8417 34.8898 61.3314 34.7653 60.8118 34.7452C60.2921 34.7251 59.7738 34.8098 59.2875 34.9942C58.8013 35.1786 58.3572 35.459 57.9816 35.8187C57.606 36.1784 57.3067 36.61 57.1014 37.0878C56.8962 37.5656 56.7892 38.0799 56.7869 38.5999L54.994 85.0999C54.9543 86.1276 55.3245 87.129 56.0231 87.8838C56.7217 88.6386 57.6915 89.085 58.7192 89.1247C59.7469 89.1645 60.7483 88.7943 61.5031 88.0957C62.2579 87.3971 62.7043 86.4273 62.744 85.3996L64.5266 38.8996Z" fill="#E7E0D3"/>
</svg>
