<svg xmlns="http://www.w3.org/2000/svg" xmlns:xlink="http://www.w3.org/1999/xlink" width="200" zoomAndPan="magnify" viewBox="0 0 150 74.999997" height="100" preserveAspectRatio="xMidYMid meet" version="1.0"><defs><g/></defs><g fill="#e7e0d3" fill-opacity="1"><g transform="translate(17.264931, 45.24565)"><g><path d="M 2.25 -5.765625 L 2.25 -26.3125 C 2.25 -27.425781 2.128906 -28.222656 1.890625 -28.703125 C 1.648438 -29.179688 1.15625 -29.421875 0.40625 -29.421875 L 0.40625 -30.8125 L 9.625 -34.6875 L 10.34375 -33.25 C 9.6875 -33.25 9.054688 -32.859375 8.453125 -32.078125 C 7.910156 -31.328125 7.640625 -30.1875 7.640625 -28.65625 L 7.640625 -7.515625 C 7.640625 -6.703125 7.773438 -6.125 8.046875 -5.78125 C 8.316406 -5.4375 8.785156 -5.265625 9.453125 -5.265625 L 9.453125 -4 C 3.359375 -1.332031 0.296875 0 0.265625 0 L -0.453125 -1.4375 C -0.210938 -1.4375 0.078125 -1.539062 0.421875 -1.75 C 0.765625 -1.957031 1.054688 -2.195312 1.296875 -2.46875 C 1.929688 -3.1875 2.25 -4.285156 2.25 -5.765625 Z M 2.25 -5.765625 "/></g></g></g><g fill="#e7e0d3" fill-opacity="1"><g transform="translate(27.564626, 45.24565)"><g><path d="M 2.25 -5.125 L 2.25 -27.3125 C 2.25 -28.300781 2.035156 -29.15625 1.609375 -29.875 C 1.191406 -30.59375 0.671875 -30.953125 0.046875 -30.953125 L 0.046875 -31.9375 C 0.253906 -31.96875 1.890625 -32.882812 4.953125 -34.6875 C 5.160156 -34.625 5.410156 -34.539062 5.703125 -34.4375 C 6.003906 -34.332031 6.398438 -34.039062 6.890625 -33.5625 C 7.390625 -33.082031 7.640625 -32.523438 7.640625 -31.890625 C 7.828125 -31.984375 8.335938 -32.269531 9.171875 -32.75 C 11.390625 -34.007812 12.710938 -34.640625 13.140625 -34.640625 C 14.097656 -34.640625 14.992188 -34.007812 15.828125 -32.75 C 16.671875 -31.488281 17.09375 -30.332031 17.09375 -29.28125 L 17.09375 -6.65625 C 17.09375 -5.007812 17.828125 -4.035156 19.296875 -3.734375 L 19.296875 -2.75 L 14.390625 0 C 13.734375 -0.269531 13.117188 -0.710938 12.546875 -1.328125 C 11.984375 -1.941406 11.703125 -2.519531 11.703125 -3.0625 L 11.703125 -25.09375 C 11.703125 -26.988281 11.421875 -28.28125 10.859375 -28.96875 C 10.304688 -29.65625 9.234375 -30 7.640625 -30 L 7.640625 -6.921875 C 7.640625 -5.722656 7.789062 -4.90625 8.09375 -4.46875 C 8.394531 -4.039062 8.859375 -3.828125 9.484375 -3.828125 L 9.484375 -2.421875 L 0.265625 1.4375 L -0.453125 0 C 0.148438 0 0.734375 -0.359375 1.296875 -1.078125 C 1.929688 -1.921875 2.25 -3.269531 2.25 -5.125 Z M 2.25 -5.125 "/></g></g></g><g fill="#e7e0d3" fill-opacity="1"><g transform="translate(47.309392, 45.24565)"><g><path d="M 17.09375 -19.96875 C 17.15625 -19.757812 15.535156 -18.992188 12.234375 -17.671875 C 12.234375 -17.046875 12.441406 -16.003906 12.859375 -14.546875 C 13.285156 -13.097656 13.832031 -11.578125 14.5 -9.984375 C 15.175781 -8.398438 16.023438 -7.003906 17.046875 -5.796875 C 18.066406 -4.597656 19.085938 -4 20.109375 -4 L 20.109375 -2.65625 C 17.316406 -0.882812 15.546875 0 14.796875 0 C 13.742188 0 12.328125 -2.289062 10.546875 -6.875 C 8.765625 -11.46875 7.875 -14.5625 7.875 -16.15625 L 7.640625 -16.0625 L 7.640625 -6.921875 C 7.640625 -5.816406 7.757812 -5.023438 8 -4.546875 C 8.238281 -4.066406 8.734375 -3.828125 9.484375 -3.828125 L 9.484375 -2.421875 L 0.265625 1.4375 L -0.453125 0 C 0.210938 0 0.84375 -0.390625 1.4375 -1.171875 C 1.976562 -1.921875 2.25 -3.0625 2.25 -4.59375 L 2.25 -27.890625 C 2.25 -29.722656 1.632812 -30.757812 0.40625 -31 L 0.40625 -31.984375 L 4.953125 -34.546875 C 5.609375 -34.273438 6.21875 -33.832031 6.78125 -33.21875 C 7.351562 -32.601562 7.640625 -32.039062 7.640625 -31.53125 L 7.640625 -18.171875 C 8.421875 -18.171875 9.289062 -18.414062 10.25 -18.90625 C 11.21875 -19.40625 11.703125 -19.925781 11.703125 -20.46875 L 11.703125 -26.3125 C 11.703125 -27.425781 11.578125 -28.222656 11.328125 -28.703125 C 11.085938 -29.179688 10.597656 -29.421875 9.859375 -29.421875 L 9.859375 -30.8125 L 19.078125 -34.6875 L 19.796875 -33.25 C 19.128906 -33.25 18.5 -32.859375 17.90625 -32.078125 C 17.363281 -31.328125 17.09375 -30.1875 17.09375 -28.65625 Z M 17.09375 -19.96875 "/></g></g></g><g fill="#e7e0d3" fill-opacity="1"><g transform="translate(66.874258, 45.24565)"><g><path d="M 8.453125 -30.28125 C 8.148438 -30.28125 7.878906 -30.128906 7.640625 -29.828125 L 7.640625 -17.953125 L 13.984375 -17.953125 L 13.984375 -16.875 L 11.734375 -15.75 L 7.640625 -15.75 L 7.640625 -11.25 C 7.640625 -7.914062 7.972656 -5.960938 8.640625 -5.390625 C 9.628906 -4.554688 10.707031 -4.078125 11.875 -3.953125 C 13.039062 -3.835938 14.300781 -3.78125 15.65625 -3.78125 L 15.65625 -2.46875 C 15.5 -2.46875 14.382812 -2.054688 12.3125 -1.234375 C 10.25 -0.410156 8.992188 0 8.546875 0 C 7.617188 0 6.335938 -0.71875 4.703125 -2.15625 C 3.066406 -3.59375 2.25 -5.15625 2.25 -6.84375 L 2.25 -30.5 C 2.25 -30.707031 3.960938 -31.445312 7.390625 -32.71875 C 10.828125 -34 12.800781 -34.640625 13.3125 -34.640625 C 13.488281 -34.640625 13.695312 -34.203125 13.9375 -33.328125 C 14.1875 -32.460938 14.46875 -31.414062 14.78125 -30.1875 C 15.09375 -28.957031 15.421875 -28.046875 15.765625 -27.453125 C 16.109375 -26.867188 16.757812 -26.578125 17.71875 -26.578125 L 17.71875 -25.6875 C 17.0625 -25.382812 15.945312 -24.847656 14.375 -24.078125 C 12.800781 -23.316406 11.953125 -22.9375 11.828125 -22.9375 C 11.378906 -22.9375 10.8125 -24.160156 10.125 -26.609375 C 9.4375 -29.054688 8.878906 -30.28125 8.453125 -30.28125 Z M 8.453125 -30.28125 "/></g></g></g><g fill="#e7e0d3" fill-opacity="1"><g transform="translate(85.449631, 45.24565)"><g><path d="M 9.40625 -30.234375 C 8.863281 -30.234375 8.273438 -30.007812 7.640625 -29.5625 L 7.640625 -14.9375 C 8.421875 -14.9375 9.289062 -15.179688 10.25 -15.671875 C 11.21875 -16.171875 11.703125 -16.691406 11.703125 -17.234375 L 11.703125 -26.90625 C 11.703125 -29.125 10.9375 -30.234375 9.40625 -30.234375 Z M 2.25 -4.59375 L 2.25 -27.890625 C 2.25 -29.722656 1.632812 -30.757812 0.40625 -31 L 0.40625 -31.984375 L 4.953125 -34.546875 C 5.546875 -34.304688 6.140625 -33.867188 6.734375 -33.234375 C 7.335938 -32.609375 7.640625 -32.039062 7.640625 -31.53125 C 10.941406 -33.539062 12.832031 -34.546875 13.3125 -34.546875 C 13.789062 -34.546875 14.546875 -33.929688 15.578125 -32.703125 C 16.617188 -31.472656 17.140625 -30.363281 17.140625 -29.375 L 17.140625 -16.734375 C 17.140625 -16.492188 15.503906 -15.726562 12.234375 -14.4375 C 13.617188 -9.789062 15.238281 -6.65625 17.09375 -5.03125 C 17.9375 -4.34375 18.789062 -4 19.65625 -4 L 19.65625 -2.65625 C 16.863281 -0.882812 15.09375 0 14.34375 0 C 13.351562 0 12.101562 -1.859375 10.59375 -5.578125 C 9.082031 -9.296875 8.265625 -11.753906 8.140625 -12.953125 L 7.640625 -12.828125 L 7.640625 -6.921875 C 7.640625 -5.816406 7.757812 -5.023438 8 -4.546875 C 8.238281 -4.066406 8.734375 -3.828125 9.484375 -3.828125 L 9.484375 -2.421875 L 0.265625 1.4375 L -0.453125 0 C 0.210938 0 0.84375 -0.390625 1.4375 -1.171875 C 1.976562 -1.921875 2.25 -3.0625 2.25 -4.59375 Z M 2.25 -4.59375 "/></g></g></g><g fill="#e7e0d3" fill-opacity="1"><g transform="translate(105.284347, 45.24565)"><g><path d="M 5 -14.34375 C 4.25 -14.34375 3.601562 -14.910156 3.0625 -16.046875 C 2.519531 -17.191406 2.25 -18.59375 2.25 -20.25 L 2.25 -29.59375 C 2.25 -30.164062 3.820312 -31.148438 6.96875 -32.546875 C 10.125 -33.941406 11.941406 -34.640625 12.421875 -34.640625 C 12.773438 -34.640625 13.28125 -34.039062 13.9375 -32.84375 C 14.09375 -32.539062 14.3125 -32.132812 14.59375 -31.625 C 14.882812 -31.113281 15.117188 -30.691406 15.296875 -30.359375 C 15.679688 -29.640625 16.175781 -29.28125 16.78125 -29.28125 L 16.78125 -28.390625 C 16.300781 -28.171875 15.65625 -27.851562 14.84375 -27.4375 C 12.957031 -26.382812 11.9375 -25.859375 11.78125 -25.859375 C 11.332031 -25.859375 10.769531 -26.742188 10.09375 -28.515625 C 9.425781 -30.285156 8.878906 -31.171875 8.453125 -31.171875 C 7.910156 -31.171875 7.640625 -30.722656 7.640625 -29.828125 L 7.640625 -19.796875 C 7.640625 -18.597656 7.910156 -18 8.453125 -18 C 8.578125 -18 9.507812 -18.382812 11.25 -19.15625 C 12.988281 -19.9375 14.035156 -20.328125 14.390625 -20.328125 C 15.109375 -20.328125 15.742188 -19.75 16.296875 -18.59375 C 16.859375 -17.445312 17.140625 -15.972656 17.140625 -14.171875 L 17.140625 -4.59375 C 17.140625 -4.019531 15.421875 -3.035156 11.984375 -1.640625 C 8.554688 -0.242188 6.585938 0.453125 6.078125 0.453125 C 5.867188 0.453125 5.628906 0.195312 5.359375 -0.3125 C 5.085938 -0.820312 4.734375 -1.546875 4.296875 -2.484375 C 3.859375 -3.429688 3.46875 -4.21875 3.125 -4.84375 C 2.78125 -5.476562 2.304688 -5.796875 1.703125 -5.796875 L 1.703125 -6.703125 C 2.179688 -6.910156 2.8125 -7.222656 3.59375 -7.640625 C 5.519531 -8.691406 6.554688 -9.21875 6.703125 -9.21875 C 7.148438 -9.21875 7.785156 -8.179688 8.609375 -6.109375 C 9.441406 -4.046875 10.066406 -3.015625 10.484375 -3.015625 C 10.785156 -3.015625 11.066406 -3.132812 11.328125 -3.375 C 11.597656 -3.613281 11.734375 -3.941406 11.734375 -4.359375 L 11.734375 -14.484375 C 11.734375 -15.835938 11.359375 -16.515625 10.609375 -16.515625 C 10.367188 -16.515625 9.425781 -16.148438 7.78125 -15.421875 C 6.132812 -14.703125 5.207031 -14.34375 5 -14.34375 Z M 5 -14.34375 "/></g></g></g><g fill="#e7e0d3" fill-opacity="1"><g transform="translate(124.804229, 45.24565)"><g><path d="M 2.421875 -32.078125 L 2.421875 -33.46875 C 2.421875 -33.53125 2.894531 -33.738281 3.84375 -34.09375 C 4.789062 -34.457031 5.347656 -34.640625 5.515625 -34.640625 C 5.679688 -34.640625 5.894531 -34.441406 6.15625 -34.046875 C 6.425781 -33.660156 6.5625 -33.257812 6.5625 -32.84375 L 6.5625 -31.046875 C 6.5625 -30.378906 6.285156 -29.347656 5.734375 -27.953125 C 5.179688 -26.554688 4.453125 -25.601562 3.546875 -25.09375 L 2.03125 -26.546875 C 2.414062 -26.691406 2.703125 -27.113281 2.890625 -27.8125 C 3.085938 -28.519531 3.1875 -29.160156 3.1875 -29.734375 C 3.1875 -29.828125 3.054688 -30.085938 2.796875 -30.515625 C 2.546875 -30.953125 2.421875 -31.472656 2.421875 -32.078125 Z M 2.421875 -32.078125 "/></g></g></g><g fill="#e7e0d3" fill-opacity="1"><g transform="translate(53.70703, 64.274905)"><g><path d="M 9.578125 -0.84375 C 9.160156 -0.507812 8.632812 -0.238281 8 -0.03125 C 7.375 0.164062 6.757812 0.265625 6.15625 0.265625 C 4.507812 0.265625 3.207031 -0.175781 2.25 -1.0625 C 1.300781 -1.957031 0.828125 -3.179688 0.828125 -4.734375 C 0.828125 -5.742188 1.054688 -6.625 1.515625 -7.375 C 1.984375 -8.132812 2.597656 -8.710938 3.359375 -9.109375 C 4.128906 -9.503906 4.953125 -9.703125 5.828125 -9.703125 C 7.398438 -9.703125 8.675781 -9.285156 9.65625 -8.453125 L 8.1875 -6.5 C 7.570312 -6.988281 6.878906 -7.234375 6.109375 -7.234375 C 5.484375 -7.234375 4.945312 -6.992188 4.5 -6.515625 C 4.0625 -6.046875 3.84375 -5.453125 3.84375 -4.734375 C 3.84375 -4.015625 4.078125 -3.410156 4.546875 -2.921875 C 5.023438 -2.441406 5.648438 -2.203125 6.421875 -2.203125 C 7.078125 -2.203125 7.625 -2.382812 8.0625 -2.75 Z M 9.578125 -0.84375 "/></g></g></g><g fill="#e7e0d3" fill-opacity="1"><g transform="translate(64.052316, 64.274905)"><g><path d="M 4.578125 -17.046875 L 4.578125 0 L 1.5625 0 L 1.5625 -17.046875 Z M 4.578125 -17.046875 "/></g></g></g><g fill="#e7e0d3" fill-opacity="1"><g transform="translate(70.186063, 64.274905)"><g><path d="M 11.0625 -9.4375 L 11.0625 0 L 8.3125 0 L 8.109375 -1.515625 C 7.773438 -0.910156 7.304688 -0.429688 6.703125 -0.078125 C 6.109375 0.273438 5.410156 0.453125 4.609375 0.453125 C 3.742188 0.453125 3.019531 0.1875 2.4375 -0.34375 C 1.863281 -0.875 1.570312 -1.550781 1.5625 -2.375 L 1.5625 -9.4375 L 4.578125 -9.4375 L 4.578125 -3.5 C 4.617188 -2.582031 5.046875 -2.125 5.859375 -2.125 C 6.515625 -2.125 7.039062 -2.445312 7.4375 -3.09375 C 7.832031 -3.738281 8.03125 -4.570312 8.03125 -5.59375 L 8.03125 -9.4375 Z M 11.0625 -9.4375 "/></g></g></g><g fill="#e7e0d3" fill-opacity="1"><g transform="translate(82.79911, 64.274905)"><g><path d="M 8.171875 -9.921875 C 8.992188 -9.921875 9.742188 -9.722656 10.421875 -9.328125 C 11.109375 -8.929688 11.648438 -8.359375 12.046875 -7.609375 C 12.453125 -6.859375 12.65625 -5.960938 12.65625 -4.921875 C 12.65625 -3.890625 12.429688 -2.976562 11.984375 -2.1875 C 11.546875 -1.40625 10.953125 -0.800781 10.203125 -0.375 C 9.453125 0.0507812 8.632812 0.265625 7.75 0.265625 C 6.46875 0.265625 5.410156 -0.140625 4.578125 -0.953125 L 4.578125 0 L 1.5625 0 L 1.5625 -17.046875 L 4.5625 -17.046875 L 4.5625 -8.796875 C 4.96875 -9.128906 5.476562 -9.398438 6.09375 -9.609375 C 6.707031 -9.816406 7.398438 -9.921875 8.171875 -9.921875 Z M 7.09375 -2.296875 C 7.53125 -2.296875 7.941406 -2.410156 8.328125 -2.640625 C 8.710938 -2.867188 9.019531 -3.1875 9.25 -3.59375 C 9.476562 -4.007812 9.59375 -4.460938 9.59375 -4.953125 C 9.59375 -5.703125 9.347656 -6.320312 8.859375 -6.8125 C 8.367188 -7.300781 7.78125 -7.546875 7.09375 -7.546875 C 6.5 -7.546875 5.976562 -7.40625 5.53125 -7.125 C 5.082031 -6.851562 4.765625 -6.488281 4.578125 -6.03125 L 4.578125 -3.71875 C 5.097656 -2.769531 5.9375 -2.296875 7.09375 -2.296875 Z M 7.09375 -2.296875 "/></g></g></g></svg>