<svg xmlns="http://www.w3.org/2000/svg" xmlns:xlink="http://www.w3.org/1999/xlink" width="200" zoomAndPan="magnify" viewBox="0 0 150 149.999998" height="200" preserveAspectRatio="xMidYMid meet" version="1.0"><defs><g/></defs><g fill="#ceb27b" fill-opacity="1"><g transform="translate(16.245042, 87.125565)"><g><path d="M 10.984375 -25.4375 C 10.097656 -25.394531 9.453125 -25.296875 9.046875 -25.140625 C 8.640625 -24.992188 8.359375 -24.710938 8.203125 -24.296875 C 8.054688 -23.878906 7.984375 -23.203125 7.984375 -22.265625 L 7.984375 -3.921875 C 7.984375 -2.984375 8.054688 -2.300781 8.203125 -1.875 C 8.359375 -1.457031 8.640625 -1.175781 9.046875 -1.03125 C 9.453125 -0.882812 10.097656 -0.785156 10.984375 -0.734375 L 10.984375 0 C 9.847656 -0.0703125 8.28125 -0.109375 6.28125 -0.109375 C 4.164062 -0.109375 2.585938 -0.0703125 1.546875 0 L 1.546875 -0.734375 C 2.441406 -0.785156 3.09375 -0.882812 3.5 -1.03125 C 3.90625 -1.175781 4.179688 -1.457031 4.328125 -1.875 C 4.472656 -2.300781 4.546875 -2.984375 4.546875 -3.921875 L 4.546875 -22.265625 C 4.546875 -23.203125 4.472656 -23.878906 4.328125 -24.296875 C 4.179688 -24.710938 3.90625 -24.992188 3.5 -25.140625 C 3.09375 -25.296875 2.441406 -25.394531 1.546875 -25.4375 L 1.546875 -26.1875 C 2.585938 -26.113281 4.164062 -26.078125 6.28125 -26.078125 C 8.257812 -26.078125 9.828125 -26.113281 10.984375 -26.1875 Z M 10.984375 -25.4375 "/></g></g></g><g fill="#ceb27b" fill-opacity="1"><g transform="translate(25.302586, 87.125565)"><g><path d="M 24.78125 -25.4375 C 23.914062 -25.394531 23.273438 -25.269531 22.859375 -25.0625 C 22.441406 -24.851562 22.15625 -24.503906 22 -24.015625 C 21.851562 -23.535156 21.78125 -22.828125 21.78125 -21.890625 L 21.78125 0.1875 L 20.9375 0.1875 L 5.40625 -23.8125 L 5.40625 -4.296875 C 5.40625 -3.328125 5.484375 -2.609375 5.640625 -2.140625 C 5.796875 -1.671875 6.109375 -1.332031 6.578125 -1.125 C 7.046875 -0.914062 7.773438 -0.785156 8.765625 -0.734375 L 8.765625 0 C 7.878906 -0.0703125 6.625 -0.109375 5 -0.109375 C 3.519531 -0.109375 2.367188 -0.0703125 1.546875 0 L 1.546875 -0.734375 C 2.410156 -0.785156 3.050781 -0.914062 3.46875 -1.125 C 3.894531 -1.332031 4.179688 -1.675781 4.328125 -2.15625 C 4.472656 -2.644531 4.546875 -3.359375 4.546875 -4.296875 L 4.546875 -22.265625 C 4.546875 -23.203125 4.472656 -23.878906 4.328125 -24.296875 C 4.179688 -24.710938 3.90625 -24.992188 3.5 -25.140625 C 3.09375 -25.296875 2.441406 -25.394531 1.546875 -25.4375 L 1.546875 -26.1875 C 2.367188 -26.113281 3.519531 -26.078125 5 -26.078125 C 6.101562 -26.078125 7.0625 -26.113281 7.875 -26.1875 L 20.9375 -6.0625 L 20.9375 -21.890625 C 20.9375 -22.859375 20.851562 -23.578125 20.6875 -24.046875 C 20.53125 -24.515625 20.21875 -24.851562 19.75 -25.0625 C 19.28125 -25.269531 18.550781 -25.394531 17.5625 -25.4375 L 17.5625 -26.1875 C 18.457031 -26.113281 19.71875 -26.078125 21.34375 -26.078125 C 22.820312 -26.078125 23.96875 -26.113281 24.78125 -26.1875 Z M 24.78125 -25.4375 "/></g></g></g><g fill="#ceb27b" fill-opacity="1"><g transform="translate(47.929491, 87.125565)"><g><path d="M 20.9375 -3 C 21.351562 -2.382812 21.8125 -1.894531 22.3125 -1.53125 C 22.820312 -1.175781 23.445312 -0.910156 24.1875 -0.734375 L 24.1875 0 C 23 -0.0703125 21.519531 -0.109375 19.75 -0.109375 C 18.414062 -0.109375 17.144531 -0.0703125 15.9375 0 L 15.9375 -0.734375 C 16.53125 -0.765625 16.960938 -0.835938 17.234375 -0.953125 C 17.503906 -1.078125 17.640625 -1.265625 17.640625 -1.515625 C 17.640625 -1.765625 17.515625 -2.0625 17.265625 -2.40625 L 11.875 -10.546875 C 11.15625 -11.628906 10.546875 -12.335938 10.046875 -12.671875 C 9.554688 -13.003906 8.867188 -13.191406 7.984375 -13.234375 L 7.984375 -3.921875 C 7.984375 -2.984375 8.054688 -2.300781 8.203125 -1.875 C 8.359375 -1.457031 8.640625 -1.175781 9.046875 -1.03125 C 9.453125 -0.882812 10.097656 -0.785156 10.984375 -0.734375 L 10.984375 0 C 9.847656 -0.0703125 8.28125 -0.109375 6.28125 -0.109375 C 4.164062 -0.109375 2.585938 -0.0703125 1.546875 0 L 1.546875 -0.734375 C 2.441406 -0.785156 3.09375 -0.882812 3.5 -1.03125 C 3.90625 -1.175781 4.179688 -1.457031 4.328125 -1.875 C 4.472656 -2.300781 4.546875 -2.984375 4.546875 -3.921875 L 4.546875 -22.265625 C 4.546875 -23.203125 4.472656 -23.878906 4.328125 -24.296875 C 4.179688 -24.710938 3.90625 -24.992188 3.5 -25.140625 C 3.09375 -25.296875 2.441406 -25.394531 1.546875 -25.4375 L 1.546875 -26.1875 C 2.585938 -26.113281 4.164062 -26.078125 6.28125 -26.078125 C 8.257812 -26.078125 9.828125 -26.113281 10.984375 -26.1875 L 10.984375 -25.4375 C 10.097656 -25.394531 9.453125 -25.296875 9.046875 -25.140625 C 8.640625 -24.992188 8.359375 -24.710938 8.203125 -24.296875 C 8.054688 -23.878906 7.984375 -23.203125 7.984375 -22.265625 L 7.984375 -13.984375 C 9.785156 -14.054688 11.191406 -14.742188 12.203125 -16.046875 L 15.75 -20.5625 C 17.007812 -22.113281 17.640625 -23.296875 17.640625 -24.109375 C 17.640625 -24.972656 16.875 -25.414062 15.34375 -25.4375 L 15.34375 -26.1875 C 16.75 -26.113281 18.171875 -26.078125 19.609375 -26.078125 C 20.960938 -26.078125 22.007812 -26.113281 22.75 -26.1875 L 22.75 -25.4375 C 21.9375 -25.320312 21.171875 -25.0625 20.453125 -24.65625 C 19.734375 -24.25 19.039062 -23.613281 18.375 -22.75 L 12.359375 -15.015625 Z M 20.9375 -3 "/></g></g></g><g fill="#ceb27b" fill-opacity="1"><g transform="translate(68.670734, 87.125565)"><g><path d="M 20.484375 -4.734375 C 20.484375 -3.328125 20.570312 -1.75 20.75 0 C 19.070312 -0.0703125 16.25 -0.109375 12.28125 -0.109375 C 7.539062 -0.109375 3.960938 -0.0703125 1.546875 0 L 1.546875 -0.734375 C 2.441406 -0.785156 3.09375 -0.882812 3.5 -1.03125 C 3.90625 -1.175781 4.179688 -1.457031 4.328125 -1.875 C 4.472656 -2.300781 4.546875 -2.984375 4.546875 -3.921875 L 4.546875 -22.265625 C 4.546875 -23.203125 4.472656 -23.878906 4.328125 -24.296875 C 4.179688 -24.710938 3.90625 -24.992188 3.5 -25.140625 C 3.09375 -25.296875 2.441406 -25.394531 1.546875 -25.4375 L 1.546875 -26.1875 C 3.960938 -26.113281 7.539062 -26.078125 12.28125 -26.078125 C 15.90625 -26.078125 18.484375 -26.113281 20.015625 -26.1875 C 19.835938 -24.5625 19.75 -23.109375 19.75 -21.828125 C 19.75 -20.859375 19.785156 -20.09375 19.859375 -19.53125 L 19.015625 -19.53125 C 18.835938 -21.132812 18.613281 -22.320312 18.34375 -23.09375 C 18.070312 -23.875 17.613281 -24.441406 16.96875 -24.796875 C 16.332031 -25.148438 15.359375 -25.328125 14.046875 -25.328125 L 10.984375 -25.328125 C 10.097656 -25.328125 9.453125 -25.257812 9.046875 -25.125 C 8.640625 -24.988281 8.359375 -24.710938 8.203125 -24.296875 C 8.054688 -23.878906 7.984375 -23.203125 7.984375 -22.265625 L 7.984375 -13.53125 L 10.421875 -13.53125 C 11.285156 -13.53125 11.953125 -13.734375 12.421875 -14.140625 C 12.890625 -14.546875 13.203125 -15.023438 13.359375 -15.578125 C 13.523438 -16.140625 13.660156 -16.835938 13.765625 -17.671875 L 13.875 -18.421875 L 14.71875 -18.421875 C 14.644531 -17.378906 14.609375 -16.21875 14.609375 -14.9375 L 14.609375 -13.171875 C 14.609375 -11.910156 14.679688 -10.160156 14.828125 -7.921875 L 13.984375 -7.921875 C 13.953125 -8.085938 13.875 -8.679688 13.75 -9.703125 C 13.632812 -10.734375 13.296875 -11.503906 12.734375 -12.015625 C 12.179688 -12.535156 11.410156 -12.796875 10.421875 -12.796875 L 7.984375 -12.796875 L 7.984375 -3.921875 C 7.984375 -2.984375 8.054688 -2.300781 8.203125 -1.875 C 8.359375 -1.457031 8.640625 -1.179688 9.046875 -1.046875 C 9.453125 -0.910156 10.097656 -0.84375 10.984375 -0.84375 L 13.6875 -0.84375 C 15.21875 -0.84375 16.378906 -1.046875 17.171875 -1.453125 C 17.972656 -1.867188 18.554688 -2.523438 18.921875 -3.421875 C 19.296875 -4.316406 19.570312 -5.640625 19.75 -7.390625 L 20.59375 -7.390625 C 20.519531 -6.722656 20.484375 -5.835938 20.484375 -4.734375 Z M 20.484375 -4.734375 "/></g></g></g><g fill="#ceb27b" fill-opacity="1"><g transform="translate(87.711182, 87.125565)"><g><path d="M 24.40625 -1.84375 C 23.84375 -1.007812 23.273438 -0.40625 22.703125 -0.03125 C 22.140625 0.332031 21.390625 0.515625 20.453125 0.515625 C 19.441406 0.515625 18.609375 0.222656 17.953125 -0.359375 C 17.296875 -0.953125 16.8125 -1.988281 16.5 -3.46875 L 15.6875 -7.171875 C 15.382812 -8.453125 15.101562 -9.4375 14.84375 -10.125 C 14.582031 -10.820312 14.191406 -11.378906 13.671875 -11.796875 C 13.160156 -12.210938 12.4375 -12.421875 11.5 -12.421875 L 7.984375 -12.421875 L 7.984375 -3.921875 C 7.984375 -2.984375 8.054688 -2.300781 8.203125 -1.875 C 8.359375 -1.457031 8.640625 -1.175781 9.046875 -1.03125 C 9.453125 -0.882812 10.097656 -0.785156 10.984375 -0.734375 L 10.984375 0 C 9.847656 -0.0703125 8.28125 -0.109375 6.28125 -0.109375 C 4.164062 -0.109375 2.585938 -0.0703125 1.546875 0 L 1.546875 -0.734375 C 2.441406 -0.785156 3.09375 -0.882812 3.5 -1.03125 C 3.90625 -1.175781 4.179688 -1.457031 4.328125 -1.875 C 4.472656 -2.300781 4.546875 -2.984375 4.546875 -3.921875 L 4.546875 -22.265625 C 4.546875 -23.203125 4.472656 -23.878906 4.328125 -24.296875 C 4.179688 -24.710938 3.90625 -24.992188 3.5 -25.140625 C 3.09375 -25.296875 2.441406 -25.394531 1.546875 -25.4375 L 1.546875 -26.1875 C 2.585938 -26.113281 4.09375 -26.078125 6.0625 -26.078125 L 10.0625 -26.109375 C 10.53125 -26.128906 11.0625 -26.140625 11.65625 -26.140625 C 14.507812 -26.140625 16.707031 -25.539062 18.25 -24.34375 C 19.789062 -23.15625 20.5625 -21.613281 20.5625 -19.71875 C 20.5625 -18.75 20.332031 -17.773438 19.875 -16.796875 C 19.414062 -15.828125 18.648438 -14.953125 17.578125 -14.171875 C 16.515625 -13.398438 15.117188 -12.878906 13.390625 -12.609375 L 13.828125 -12.53125 C 15.453125 -12.257812 16.632812 -11.765625 17.375 -11.046875 C 18.125 -10.335938 18.671875 -9.207031 19.015625 -7.65625 L 19.9375 -3.890625 C 20.175781 -2.753906 20.429688 -1.960938 20.703125 -1.515625 C 20.984375 -1.066406 21.359375 -0.84375 21.828125 -0.84375 C 22.242188 -0.84375 22.59375 -0.953125 22.875 -1.171875 C 23.15625 -1.398438 23.484375 -1.757812 23.859375 -2.25 Z M 10.71875 -25.4375 C 9.957031 -25.4375 9.382812 -25.347656 9 -25.171875 C 8.625 -25.003906 8.359375 -24.695312 8.203125 -24.25 C 8.054688 -23.8125 7.984375 -23.148438 7.984375 -22.265625 L 7.984375 -13.171875 L 10.46875 -13.171875 C 12.90625 -13.171875 14.578125 -13.710938 15.484375 -14.796875 C 16.398438 -15.878906 16.859375 -17.382812 16.859375 -19.3125 C 16.859375 -21.332031 16.378906 -22.859375 15.421875 -23.890625 C 14.460938 -24.921875 12.894531 -25.4375 10.71875 -25.4375 Z M 10.71875 -25.4375 "/></g></g></g><g fill="#ceb27b" fill-opacity="1"><g transform="translate(108.193606, 87.125565)"><g><path d="M 9.46875 -26.59375 C 10.550781 -26.59375 11.40625 -26.472656 12.03125 -26.234375 C 12.664062 -26.003906 13.316406 -25.664062 13.984375 -25.21875 C 14.523438 -24.875 14.941406 -24.703125 15.234375 -24.703125 C 15.460938 -24.703125 15.632812 -24.832031 15.75 -25.09375 C 15.875 -25.351562 15.972656 -25.765625 16.046875 -26.328125 L 16.90625 -26.328125 C 16.78125 -24.898438 16.71875 -22.382812 16.71875 -18.78125 L 15.859375 -18.78125 C 15.710938 -20.78125 15.140625 -22.460938 14.140625 -23.828125 C 13.148438 -25.203125 11.703125 -25.890625 9.796875 -25.890625 C 8.460938 -25.890625 7.375 -25.488281 6.53125 -24.6875 C 5.695312 -23.882812 5.28125 -22.851562 5.28125 -21.59375 C 5.28125 -20.65625 5.492188 -19.84375 5.921875 -19.15625 C 6.359375 -18.46875 6.910156 -17.875 7.578125 -17.375 C 8.242188 -16.882812 9.191406 -16.257812 10.421875 -15.5 L 11.5 -14.828125 C 13.050781 -13.867188 14.273438 -13.023438 15.171875 -12.296875 C 16.078125 -11.566406 16.800781 -10.734375 17.34375 -9.796875 C 17.882812 -8.859375 18.15625 -7.765625 18.15625 -6.515625 C 18.15625 -4.265625 17.414062 -2.53125 15.9375 -1.3125 C 14.457031 -0.09375 12.582031 0.515625 10.3125 0.515625 C 9.132812 0.515625 8.164062 0.390625 7.40625 0.140625 C 6.65625 -0.0976562 5.9375 -0.425781 5.25 -0.84375 C 4.707031 -1.195312 4.289062 -1.375 4 -1.375 C 3.769531 -1.375 3.59375 -1.242188 3.46875 -0.984375 C 3.351562 -0.722656 3.257812 -0.304688 3.1875 0.265625 L 2.328125 0.265625 C 2.429688 -1.097656 2.484375 -4.0625 2.484375 -8.625 L 3.328125 -8.625 C 3.503906 -6.125 4.117188 -4.097656 5.171875 -2.546875 C 6.234375 -0.992188 7.863281 -0.21875 10.0625 -0.21875 C 11.394531 -0.21875 12.53125 -0.628906 13.46875 -1.453125 C 14.40625 -2.285156 14.875 -3.515625 14.875 -5.140625 C 14.875 -6.523438 14.410156 -7.695312 13.484375 -8.65625 C 12.554688 -9.613281 11.09375 -10.695312 9.09375 -11.90625 C 7.644531 -12.789062 6.46875 -13.578125 5.5625 -14.265625 C 4.664062 -14.960938 3.929688 -15.796875 3.359375 -16.765625 C 2.796875 -17.742188 2.515625 -18.882812 2.515625 -20.1875 C 2.515625 -22.257812 3.179688 -23.84375 4.515625 -24.9375 C 5.847656 -26.039062 7.5 -26.59375 9.46875 -26.59375 Z M 9.46875 -26.59375 "/></g></g></g><g fill="#ceb27b" fill-opacity="1"><g transform="translate(124.682866, 87.125565)"><g><path d="M 4.359375 -26.703125 C 5.328125 -26.703125 6.054688 -26.304688 6.546875 -25.515625 C 6.960938 -24.847656 7.171875 -24.035156 7.171875 -23.078125 C 7.171875 -21.847656 6.851562 -20.738281 6.21875 -19.75 C 5.59375 -18.757812 4.640625 -17.96875 3.359375 -17.375 L 3.03125 -18.046875 C 3.789062 -18.367188 4.445312 -18.875 5 -19.5625 C 5.5625 -20.25 5.84375 -20.953125 5.84375 -21.671875 C 5.84375 -21.960938 5.804688 -22.222656 5.734375 -22.453125 C 5.335938 -22.128906 4.878906 -21.96875 4.359375 -21.96875 C 3.691406 -21.96875 3.128906 -22.179688 2.671875 -22.609375 C 2.222656 -23.046875 2 -23.617188 2 -24.328125 C 2 -24.992188 2.222656 -25.554688 2.671875 -26.015625 C 3.128906 -26.472656 3.691406 -26.703125 4.359375 -26.703125 Z M 4.359375 -26.703125 "/></g></g></g><g fill="#ceb27b" fill-opacity="1"><g transform="translate(55.676998, 96.968191)"><g><path d="M 2.90625 0.09375 C 2.519531 0.09375 2.171875 0.0234375 1.859375 -0.109375 C 1.554688 -0.242188 1.289062 -0.429688 1.0625 -0.671875 C 0.832031 -0.921875 0.65625 -1.203125 0.53125 -1.515625 C 0.40625 -1.828125 0.34375 -2.160156 0.34375 -2.515625 C 0.34375 -2.992188 0.445312 -3.425781 0.65625 -3.8125 C 0.875 -4.207031 1.175781 -4.519531 1.5625 -4.75 C 1.945312 -4.988281 2.390625 -5.109375 2.890625 -5.109375 C 3.378906 -5.109375 3.804688 -4.992188 4.171875 -4.765625 C 4.546875 -4.546875 4.820312 -4.25 5 -3.875 L 4.1875 -3.625 C 4.050781 -3.863281 3.867188 -4.046875 3.640625 -4.171875 C 3.410156 -4.304688 3.15625 -4.375 2.875 -4.375 C 2.5625 -4.375 2.28125 -4.289062 2.03125 -4.125 C 1.78125 -3.96875 1.578125 -3.75 1.421875 -3.46875 C 1.273438 -3.195312 1.203125 -2.878906 1.203125 -2.515625 C 1.203125 -2.160156 1.273438 -1.84375 1.421875 -1.5625 C 1.578125 -1.28125 1.78125 -1.054688 2.03125 -0.890625 C 2.289062 -0.722656 2.578125 -0.640625 2.890625 -0.640625 C 3.085938 -0.640625 3.273438 -0.671875 3.453125 -0.734375 C 3.640625 -0.804688 3.800781 -0.898438 3.9375 -1.015625 C 4.070312 -1.140625 4.164062 -1.269531 4.21875 -1.40625 L 5.046875 -1.15625 C 4.941406 -0.914062 4.785156 -0.703125 4.578125 -0.515625 C 4.367188 -0.328125 4.117188 -0.175781 3.828125 -0.0625 C 3.546875 0.0390625 3.238281 0.09375 2.90625 0.09375 Z M 2.90625 0.09375 "/></g></g></g><g fill="#ceb27b" fill-opacity="1"><g transform="translate(67.263791, 96.968191)"><g><path d="M 0.703125 -7.015625 L 1.546875 -7.015625 L 1.546875 -1.296875 C 1.546875 -1.023438 1.582031 -0.851562 1.65625 -0.78125 C 1.738281 -0.71875 1.832031 -0.6875 1.9375 -0.6875 C 2.070312 -0.6875 2.203125 -0.703125 2.328125 -0.734375 C 2.453125 -0.765625 2.554688 -0.796875 2.640625 -0.828125 L 2.765625 -0.140625 C 2.628906 -0.078125 2.460938 -0.03125 2.265625 0 C 2.078125 0.0390625 1.910156 0.0625 1.765625 0.0625 C 1.429688 0.0625 1.171875 -0.0234375 0.984375 -0.203125 C 0.796875 -0.390625 0.703125 -0.648438 0.703125 -0.984375 Z M 0.703125 -7.015625 "/></g></g></g><g fill="#ceb27b" fill-opacity="1"><g transform="translate(76.276399, 96.968191)"><g><path d="M 0.640625 -2.015625 L 0.640625 -5.015625 L 1.484375 -5.015625 L 1.484375 -2.171875 C 1.484375 -1.660156 1.570312 -1.273438 1.75 -1.015625 C 1.925781 -0.765625 2.191406 -0.640625 2.546875 -0.640625 C 2.773438 -0.640625 2.992188 -0.6875 3.203125 -0.78125 C 3.421875 -0.882812 3.617188 -1.023438 3.796875 -1.203125 C 3.972656 -1.390625 4.109375 -1.613281 4.203125 -1.875 L 4.203125 -5.015625 L 5.046875 -5.015625 L 5.046875 -0.96875 C 5.046875 -0.863281 5.066406 -0.785156 5.109375 -0.734375 C 5.148438 -0.679688 5.21875 -0.65625 5.3125 -0.65625 L 5.3125 0 C 5.21875 0.0078125 5.140625 0.015625 5.078125 0.015625 C 5.023438 0.0234375 4.972656 0.03125 4.921875 0.03125 C 4.765625 0.03125 4.628906 -0.015625 4.515625 -0.109375 C 4.398438 -0.210938 4.335938 -0.335938 4.328125 -0.484375 L 4.3125 -1.078125 C 4.09375 -0.703125 3.800781 -0.410156 3.4375 -0.203125 C 3.070312 -0.00390625 2.671875 0.09375 2.234375 0.09375 C 1.703125 0.09375 1.300781 -0.0820312 1.03125 -0.4375 C 0.769531 -0.789062 0.640625 -1.316406 0.640625 -2.015625 Z M 0.640625 -2.015625 "/></g></g></g><g fill="#ceb27b" fill-opacity="1"><g transform="translate(88.314634, 96.968191)"><g><path d="M 3.25 0.09375 C 2.863281 0.09375 2.507812 0 2.1875 -0.1875 C 1.863281 -0.382812 1.613281 -0.632812 1.4375 -0.9375 L 1.4375 0 L 0.6875 0 L 0.6875 -7.015625 L 1.53125 -7.015625 L 1.53125 -4.015625 C 1.738281 -4.335938 1.992188 -4.597656 2.296875 -4.796875 C 2.609375 -5.003906 2.96875 -5.109375 3.375 -5.109375 C 3.726562 -5.109375 4.039062 -5.035156 4.3125 -4.890625 C 4.59375 -4.742188 4.828125 -4.546875 5.015625 -4.296875 C 5.210938 -4.054688 5.363281 -3.78125 5.46875 -3.46875 C 5.570312 -3.15625 5.625 -2.828125 5.625 -2.484375 C 5.625 -2.128906 5.566406 -1.796875 5.453125 -1.484375 C 5.335938 -1.179688 5.171875 -0.910156 4.953125 -0.671875 C 4.734375 -0.429688 4.476562 -0.242188 4.1875 -0.109375 C 3.90625 0.0234375 3.59375 0.09375 3.25 0.09375 Z M 3.046875 -0.640625 C 3.296875 -0.640625 3.523438 -0.6875 3.734375 -0.78125 C 3.953125 -0.882812 4.132812 -1.019531 4.28125 -1.1875 C 4.4375 -1.363281 4.554688 -1.566406 4.640625 -1.796875 C 4.722656 -2.023438 4.765625 -2.253906 4.765625 -2.484375 C 4.765625 -2.816406 4.695312 -3.125 4.5625 -3.40625 C 4.425781 -3.695312 4.234375 -3.929688 3.984375 -4.109375 C 3.734375 -4.285156 3.445312 -4.375 3.125 -4.375 C 2.882812 -4.375 2.660156 -4.316406 2.453125 -4.203125 C 2.253906 -4.097656 2.078125 -3.957031 1.921875 -3.78125 C 1.765625 -3.601562 1.632812 -3.410156 1.53125 -3.203125 L 1.53125 -1.75 C 1.5625 -1.59375 1.628906 -1.445312 1.734375 -1.3125 C 1.835938 -1.175781 1.960938 -1.054688 2.109375 -0.953125 C 2.253906 -0.859375 2.40625 -0.78125 2.5625 -0.71875 C 2.726562 -0.664062 2.890625 -0.640625 3.046875 -0.640625 Z M 3.046875 -0.640625 "/></g></g></g></svg>