<svg width="16" height="16" viewBox="0 0 16 16" fill="none" xmlns="http://www.w3.org/2000/svg">
<path fill-rule="evenodd" clip-rule="evenodd" d="M15.1387 1.80528C15.2007 1.7433 15.2498 1.66971 15.2834 1.58872C15.3169 1.50774 15.3342 1.42094 15.3342 1.33328C15.3342 1.24562 15.3169 1.15882 15.2834 1.07784C15.2498 0.99685 15.2007 0.923264 15.1387 0.86128C15.0767 0.799296 15.0031 0.750128 14.9221 0.716583C14.8411 0.683037 14.7543 0.665771 14.6667 0.665771C14.579 0.665771 14.4922 0.683037 14.4112 0.716583C14.3302 0.750128 14.2567 0.799296 14.1947 0.86128L8 7.05728L1.80533 0.86128C1.74335 0.799296 1.66976 0.750128 1.58878 0.716583C1.50779 0.683037 1.42099 0.665771 1.33333 0.665771C1.24567 0.665771 1.15887 0.683037 1.07789 0.716583C0.996903 0.750128 0.923317 0.799296 0.861333 0.86128C0.799349 0.923264 0.750181 0.99685 0.716636 1.07784C0.68309 1.15882 0.665824 1.24562 0.665824 1.33328C0.665824 1.42094 0.68309 1.50774 0.716636 1.58872C0.750181 1.66971 0.799349 1.7433 0.861333 1.80528L7.05733 7.99995L0.861333 14.1946C0.736151 14.3198 0.665824 14.4896 0.665824 14.6666C0.665824 14.8436 0.736151 15.0134 0.861333 15.1386C0.986515 15.2638 1.1563 15.3341 1.33333 15.3341C1.51037 15.3341 1.68015 15.2638 1.80533 15.1386L8 8.94261L14.1947 15.1386C14.3198 15.2638 14.4896 15.3341 14.6667 15.3341C14.8437 15.3341 15.0135 15.2638 15.1387 15.1386C15.2638 15.0134 15.3342 14.8436 15.3342 14.6666C15.3342 14.4896 15.2638 14.3198 15.1387 14.1946L8.94267 7.99995L15.1387 1.80528Z" fill="#E7E0D3"/>
</svg>
