<svg width="20" height="20" viewBox="0 0 20 20" fill="none" xmlns="http://www.w3.org/2000/svg">
<path fill-rule="evenodd" clip-rule="evenodd" d="M17.1386 3.80528C17.2006 3.7433 17.2498 3.66971 17.2833 3.58872C17.3169 3.50774 17.3341 3.42094 17.3341 3.33328C17.3341 3.24562 17.3169 3.15882 17.2833 3.07784C17.2498 2.99685 17.2006 2.92326 17.1386 2.86128C17.0766 2.7993 17.003 2.75013 16.9221 2.71658C16.8411 2.68304 16.7543 2.66577 16.6666 2.66577C16.579 2.66577 16.4922 2.68304 16.4112 2.71658C16.3302 2.75013 16.2566 2.7993 16.1946 2.86128L9.99995 9.05728L3.80528 2.86128C3.7433 2.7993 3.66971 2.75013 3.58872 2.71658C3.50774 2.68304 3.42094 2.66577 3.33328 2.66577C3.24562 2.66577 3.15882 2.68304 3.07784 2.71658C2.99685 2.75013 2.92326 2.7993 2.86128 2.86128C2.7993 2.92326 2.75013 2.99685 2.71658 3.07784C2.68304 3.15882 2.66577 3.24562 2.66577 3.33328C2.66577 3.42094 2.68304 3.50774 2.71658 3.58872C2.75013 3.66971 2.7993 3.7433 2.86128 3.80528L9.05728 9.99995L2.86128 16.1946C2.7361 16.3198 2.66577 16.4896 2.66577 16.6666C2.66577 16.8436 2.7361 17.0134 2.86128 17.1386C2.98646 17.2638 3.15625 17.3341 3.33328 17.3341C3.51031 17.3341 3.6801 17.2638 3.80528 17.1386L9.99995 10.9426L16.1946 17.1386C16.3198 17.2638 16.4896 17.3341 16.6666 17.3341C16.8436 17.3341 17.0134 17.2638 17.1386 17.1386C17.2638 17.0134 17.3341 16.8436 17.3341 16.6666C17.3341 16.4896 17.2638 16.3198 17.1386 16.1946L10.9426 9.99995L17.1386 3.80528Z" fill="#CEB27D"/>
</svg>
